# xmcd
#
# Track frame offsets: 
#        150
#        13047
#        38032
#        55824
#        75259
#        94329
#        112334
#        136578
#        155020
#        174319
#        193822
#        211714
#        226338
#        249901
#        268670
#        289925
#        317784
#
# Disc length: 4376 seconds
#
# Revision: 0
# Processed by: cddbd v1.5.2PL0 Copyright (c) Steve Scherf et al.
# Submitted via: ExactAudioCopy v0.95b4
#
DISCID=e4111611
DTITLE=Assassin - Touche d'espoir
DYEAR=2005
DGENRE=Rap
TTITLE0=Premieres touches
TTITLE1=Serieux dans nos affaires
TTITLE2=Classik
TTITLE3=Touche d'espoir
TTITLE4=Paris theorie
TTITLE5=Undaground connexion feat Supernatural part. 2
TTITLE6=Esclave 2000
TTITLE7=Rap for real feat R.A. the rugged man
TTITLE8=Etat policier
TTITLE9=Condamne feat Profecy
TTITLE10=Ill nana remix 2005
TTITLE11=$$$ feat Pyroman
TTITLE12=Touche d'espoir live feat Lyricson
TTITLE13=Trop de choses a dire feat Tairo
TTITLE14=On ne meurt pas
TTITLE15=Au fond de mon coeur
TTITLE16=Final touch
EXTD=
EXTT0=
EXTT1=
EXTT2=
EXTT3=
EXTT4=
EXTT5=
EXTT6=
EXTT7=
EXTT8=
EXTT9=
EXTT10=
EXTT11=
EXTT12=
EXTT13=
EXTT14=
EXTT15=
EXTT16=
PLAYORDER=
